<svg xmlns="http://www.w3.org/2000/svg" viewBox="0 0 1000 362" width="1000" height="362"><rect width="1000" height="362" fill="white"/><text x="16" y="30" font-family="Poppins, Lato, sans-serif" font-size="19" font-weight="600" fill="#123A63">Les quatre domaines d’intervention pendant le stage au CCAS</text><rect x="16.0" y="56" width="477.0" height="140" rx="6" fill="#F5F8FC"/><rect x="16.0" y="56" width="477.0" height="5" rx="2.5" fill="#EF5F45"/><text x="32.0" y="90" font-family="Poppins, Lato, sans-serif" font-size="16" font-weight="600" fill="#123A63">Comptabilité publique</text><text x="32.0" y="114" font-family="Lato, sans-serif" font-size="13.5" fill="#56687D">Mandats de dépenses, pointage</text><text x="32.0" y="132" font-family="Lato, sans-serif" font-size="13.5" fill="#56687D">des rejets 2023, régie, budget</text><text x="32.0" y="150" font-family="Lato, sans-serif" font-size="13.5" fill="#56687D">prévisionnel 2024.</text><rect x="507.0" y="56" width="477.0" height="140" rx="6" fill="#F5F8FC"/><rect x="507.0" y="56" width="477.0" height="5" rx="2.5" fill="#EF5F45"/><text x="523.0" y="90" font-family="Poppins, Lato, sans-serif" font-size="16" font-weight="600" fill="#123A63">Ressources humaines</text><text x="523.0" y="114" font-family="Lato, sans-serif" font-size="13.5" fill="#56687D">Paie, DSN, arrêts maladie,</text><text x="523.0" y="132" font-family="Lato, sans-serif" font-size="13.5" fill="#56687D">RIFSEEP, entretiens</text><text x="523.0" y="150" font-family="Lato, sans-serif" font-size="13.5" fill="#56687D">professionnels, grilles</text><text x="523.0" y="168" font-family="Lato, sans-serif" font-size="13.5" fill="#56687D">indiciaires.</text><rect x="16.0" y="210" width="477.0" height="140" rx="6" fill="#F5F8FC"/><rect x="16.0" y="210" width="477.0" height="5" rx="2.5" fill="#EF5F45"/><text x="32.0" y="244" font-family="Poppins, Lato, sans-serif" font-size="16" font-weight="600" fill="#123A63">Documents stratégiques</text><text x="32.0" y="268" font-family="Lato, sans-serif" font-size="13.5" fill="#56687D">Rapport Social Unique, Lignes</text><text x="32.0" y="286" font-family="Lato, sans-serif" font-size="13.5" fill="#56687D">Directrices de Gestion, DUERP.</text><rect x="507.0" y="210" width="477.0" height="140" rx="6" fill="#F5F8FC"/><rect x="507.0" y="210" width="477.0" height="5" rx="2.5" fill="#EF5F45"/><text x="523.0" y="244" font-family="Poppins, Lato, sans-serif" font-size="16" font-weight="600" fill="#123A63">Accompagnement social</text><text x="523.0" y="268" font-family="Lato, sans-serif" font-size="13.5" fill="#56687D">Dossiers d’aide énergie,</text><text x="523.0" y="286" font-family="Lato, sans-serif" font-size="13.5" fill="#56687D">domiciliation, orientation des</text><text x="523.0" y="304" font-family="Lato, sans-serif" font-size="13.5" fill="#56687D">usagers.</text></svg>